<svg width="24" height="24" viewBox="0 0 24 24" fill="none" xmlns="http://www.w3.org/2000/svg">
<path d="M21.5 19.5905L22.0968 20.2231L21.4989 19.5905H21.5ZM7.2792 17.0265L7.87483 16.3938L7.27807 17.0265H7.2792ZM2.62466 4.43027L2.02902 3.7988L2.62579 4.43146L2.62466 4.43027ZM16.0919 16.0323L16.6074 15.4936L15.4128 14.2283L14.9006 14.767L16.0919 16.0323ZM18.3323 15.2676L20.4881 16.5032L21.2947 14.9358L19.14 13.7014L18.3323 15.2676ZM20.9021 18.9578L19.3002 20.6382L20.4926 21.9023L22.0945 20.2231L20.9021 18.9578ZM18.3233 21.1781C16.6875 21.3398 12.4572 21.1959 7.87483 16.3938L6.6813 17.658C11.681 22.8989 16.4405 23.1557 18.4812 22.9548L18.3222 21.1781H18.3233ZM7.87483 16.3938C3.50796 11.8153 2.78372 7.96582 2.69347 6.29497L1.00358 6.39605C1.11639 8.49859 2.01323 12.7655 6.6813 17.658L7.87483 16.3938ZM9.42597 9.04445L9.74973 8.70433L8.55846 7.44019L8.2347 7.77912L9.4271 9.04326L9.42597 9.04445ZM10.0069 4.38151L8.58553 2.37887L7.23069 3.44917L8.65209 5.45062L10.0069 4.38151ZM3.80127 1.94242L2.03015 3.79761L3.22368 5.06294L4.99367 3.20775L3.80127 1.94242ZM8.83033 8.41178C8.23244 7.77912 8.23244 7.77912 8.23244 7.78149H8.23018L8.2268 7.78625C8.17354 7.84356 8.12556 7.90608 8.08353 7.97296C8.02261 8.0681 7.95606 8.19296 7.89965 8.35113C7.76228 8.75941 7.72807 9.19835 7.80038 9.62479C7.95154 10.6535 8.62389 12.0127 10.3454 13.818L11.5389 12.5526C9.92684 10.864 9.54329 9.83647 9.47222 9.35126C9.43838 9.12056 9.47335 9.00639 9.4835 8.98023C9.48914 8.96358 9.4914 8.96239 9.4835 8.97309C9.47355 8.98958 9.46223 9.00511 9.44966 9.01947L9.43838 9.03136C9.43473 9.03506 9.43097 9.03863 9.4271 9.04207L8.8292 8.41178H8.83033ZM10.3454 13.818C12.068 15.6232 13.3642 16.3272 14.3411 16.4842C14.8408 16.5651 15.2436 16.5009 15.5493 16.3807C15.7202 16.314 15.8801 16.2193 16.0231 16.1001C16.0425 16.083 16.0613 16.0651 16.0795 16.0466L16.0874 16.0394L16.0908 16.0359L16.0919 16.0335C16.0919 16.0335 16.093 16.0323 15.4963 15.3996C14.8984 14.767 14.9018 14.7658 14.9018 14.7658L14.904 14.7634L14.9063 14.761L14.913 14.7551L14.9243 14.7432C14.9379 14.7304 14.9522 14.7184 14.9672 14.7075C14.9785 14.6992 14.9751 14.7028 14.9593 14.7099C14.9311 14.7206 14.8205 14.7575 14.5983 14.7218C14.1313 14.6457 13.1498 14.2413 11.5389 12.5526L10.3454 13.818ZM8.58553 2.37768C7.43487 0.760338 5.17416 0.503467 3.80127 1.94242L4.99367 3.20775C5.59382 2.57866 6.65874 2.64406 7.23069 3.44917L8.58441 2.37768H8.58553ZM2.6946 6.29616C2.67204 5.88469 2.85141 5.45419 3.22368 5.06413L2.02902 3.7988C1.42323 4.43384 0.946047 5.33289 1.00358 6.39605L2.6946 6.29616ZM19.3002 20.6382C18.9911 20.964 18.6572 21.1471 18.3244 21.1792L18.4812 22.9548C19.3104 22.8727 19.9884 22.4327 20.4938 21.9035L19.3002 20.6382ZM9.74973 8.70433C10.8609 7.54008 10.9433 5.70036 10.0081 4.3827L8.65322 5.45181C9.10785 6.0928 9.04016 6.93358 8.55733 7.44138L9.74973 8.70433ZM20.4892 16.5044C21.4109 17.0324 21.5542 18.2764 20.9032 18.959L22.0968 20.2231C23.6084 18.6379 23.1425 15.9942 21.2958 14.937L20.4892 16.5044ZM16.6074 15.4948C17.0406 15.0405 17.7378 14.9287 18.3334 15.2688L19.1412 13.7026C17.9183 13.001 16.4021 13.1948 15.4139 14.2294L16.6074 15.4948Z" fill="#FFD060" fill-opacity="0.9"/>
</svg>
